<?xml version="1.0" standalone="yes"?>
<svg xmlns="http://www.w3.org/2000/svg" width="1280" height="338">
<path style="fill:rgba(255,255,255,0); stroke:none;" d="M0 0L0 338L1280 338L1280 0L0 0z"/>
<path style="fill:#f90723; stroke:none;" d="M979 87L979 271L1134 271L1172 271C1175.32 271 1182.63 272.351 1184.97 269.397C1187.3 266.457 1186 259.531 1186 256L1186 222L1186 87L979 87M86 110C87.3803 113.037 89.89 115.728 90.6829 119C93.0723 128.86 87.7868 141.061 87.0895 151C85.6135 172.04 82.1999 193.073 79.7145 214C78.4102 224.983 76.0012 235.937 76 247L120 247C120.043 231.535 125.679 216.539 126 201L190 201C198.677 201 210.546 202.851 217.995 197.427C227.761 190.318 226.857 179.66 228.184 169C230.599 149.6 235.595 129.601 236 110L86 110M267 110C268.316 113.879 271.887 116.997 272.593 121C273.481 126.027 270.939 132.017 270.289 137C268.597 149.994 267.46 163.028 265.439 176C263.283 189.841 262.479 204.104 260.816 218C259.66 227.648 257.769 237.252 257 247L303 247C304.036 230.699 309.66 214.459 310 198C314.953 200.25 318.238 205.298 321.88 209.246C328.898 216.852 336.424 224.106 343.114 232.001C346.96 236.539 351.036 242.996 356.285 245.972C360.186 248.183 366.665 247 371 247L407 247C404.053 240.81 397.762 235.906 393.036 231.015C382.12 219.717 369.035 208.839 360 196C372.84 196 392.189 199.813 402.775 191.2C408.718 186.365 408.48 175.934 409.424 169C410.782 159.019 412.81 149.048 413.831 139C414.78 129.654 415.147 119.999 418 111C412.275 109.308 405.94 110 400 110L369 110L267 110M456 110C455.878 115.925 454.022 121.221 453.209 127C451.849 136.669 450.889 146.352 449.325 156C447.026 170.176 447.309 184.9 444.486 199C442.763 207.607 442.157 216.327 440.754 225C439.931 230.087 438.986 236.322 442.009 240.895C448.546 250.782 468.906 247 479 247C514.05 247 548.943 246 584 246C584.278 239.515 586.022 233.38 586.816 227C589.937 201.933 593.179 176.956 596.576 152C597.74 143.451 599.962 134.608 599.999 126C600.014 122.704 600.408 118.948 598.397 116.109C591.361 106.181 571.35 110 561 110L456 110M820 111C821.287 113.604 823.379 116.171 824.103 119C826.769 129.401 821.406 143.553 820.155 154C816.467 184.791 810.881 215.293 807 246L839 246C842.328 246 848.615 247.175 851.397 244.972C854.241 242.72 853.633 234.39 854.054 231C855.503 219.334 858.07 207.777 859 196L911 196C918.274 196 927.879 197.661 934.891 195.682C940.284 194.16 939.732 185.451 940.281 181C940.525 179.016 941.292 176.375 939.958 174.603C937.209 170.955 925.131 173 921 173L864 173C865.647 164.127 866.117 154.963 867.282 146C867.702 142.766 867.403 137.928 869.603 135.318C873.464 130.739 885.591 133 891 133C911.68 133 932.395 133.998 953 134C953.022 125.947 954.655 118.026 955 110L820 111z"/>
<path style="fill:rgb(26, 27, 41); stroke:none;" d="M1003 110C1003.9 113.526 1005.98 116.484 1006.94 120C1014.48 147.706 1018.49 176.822 1023.8 205C1026.44 218.967 1030.88 232.809 1032 247L1079 247C1083.93 247 1093.28 248.785 1097.53 245.972C1100.67 243.891 1101.44 239.326 1103.03 236.17C1106.87 228.507 1110.41 220.727 1114.15 213C1125.71 189.102 1136.42 164.752 1148.29 141C1152.79 131.995 1156.04 119.256 1163 112C1158.92 108.911 1152.94 110 1148 110L1115 110C1113.7 116.6 1109.08 123.194 1106.15 129.285C1099.43 143.213 1092.17 156.943 1085.71 171C1082.76 177.416 1079.46 183.627 1076.48 190.004C1074.28 194.683 1072.96 199.541 1069 203C1065.98 179.133 1059.79 155.688 1055.68 132C1054.4 124.643 1052.16 117.524 1052 110L1003 110z"/>
<path style="fill:#f90723; stroke:none;" d="M640.603 112.028C637.475 114.499 638.083 123.323 637.576 127C635.687 140.717 633.961 154.317 631.999 168C629.435 185.884 626.371 203.968 624.914 222C624.386 228.544 621.527 235.031 625.768 240.945C631.745 249.279 648.018 246 657 246C683.321 246 709.625 247 736 247L757 247C759.58 246.999 763.251 247.569 765.486 245.972C768.758 243.635 768.733 235.686 769.487 232C770.775 225.704 770.526 219.328 771.286 213C772.335 204.25 774.316 195.816 775.17 187C776.784 170.335 779.85 153.671 781.845 137C782.558 131.044 785.021 121.703 781.682 116.214C776.575 107.817 759.203 111 751 111L670 111L649 111C646.528 111.001 642.693 110.377 640.603 112.028z"/>
<path style="fill:rgb(26, 27, 41); stroke:none;" d="M136 133C135.35 148.128 132 162.787 132 178L181 178C181.65 162.865 186.689 148.054 187 133L136 133M317 133C316.962 146.367 313.001 159.573 313 173L364 173C365.06 159.568 368 146.484 368 133L317 133M497 134C497 164.188 487.083 193.835 487 224C504.699 224 522.381 223.609 540 225C543.748 206.831 545.457 188.342 548.296 170C550.187 157.786 553.467 145.409 554 133L497 134M670 224L724 224C726.704 209.433 728.085 194.654 730.438 180C732.916 164.571 737 148.612 737 133L699 133C694.545 133 687.171 131.617 683.228 134.028C678.022 137.211 678.822 151.435 678.155 157C675.502 179.146 670.461 201.657 670 224z"/>
</svg>
