<svg xmlns="http://www.w3.org/2000/svg" xmlns:xlink="http://www.w3.org/1999/xlink" version="1.0" x="0" y="0" width="2400" height="724.3922653754021" viewBox="44.74909408569336 87.19550521850586 250.50181182861328 75.60898956298828" preserveAspectRatio="xMidYMid meet" color-interpolation-filters="sRGB"><g><defs><linearGradient id="92" x1="0%" y1="0%" x2="100%" y2="0%"><stop offset="0%" stop-color="#fa71cd"></stop> <stop offset="100%" stop-color="#9b59b6"></stop></linearGradient><linearGradient id="93" x1="0%" y1="0%" x2="100%" y2="0%"><stop offset="0%" stop-color="#f9d423"></stop> <stop offset="100%" stop-color="#f83600"></stop></linearGradient><linearGradient id="94" x1="0%" y1="0%" x2="100%" y2="0%"><stop offset="0%" stop-color="#0064d2"></stop> <stop offset="100%" stop-color="#1cb0f6"></stop></linearGradient><linearGradient id="95" x1="0%" y1="0%" x2="100%" y2="0%"><stop offset="0%" stop-color="#f00978"></stop> <stop offset="100%" stop-color="#3f51b1"></stop></linearGradient><linearGradient id="96" x1="0%" y1="0%" x2="100%" y2="0%"><stop offset="0%" stop-color="#7873f5"></stop> <stop offset="100%" stop-color="#ec77ab"></stop></linearGradient><linearGradient id="97" x1="0%" y1="0%" x2="100%" y2="0%"><stop offset="0%" stop-color="#f9d423"></stop> <stop offset="100%" stop-color="#e14fad"></stop></linearGradient><linearGradient id="98" x1="0%" y1="0%" x2="100%" y2="0%"><stop offset="0%" stop-color="#009efd"></stop> <stop offset="100%" stop-color="#2af598"></stop></linearGradient><linearGradient id="99" x1="0%" y1="0%" x2="100%" y2="0%"><stop offset="0%" stop-color="#ffcc00"></stop> <stop offset="100%" stop-color="#00b140"></stop></linearGradient><linearGradient id="100" x1="0%" y1="0%" x2="100%" y2="0%"><stop offset="0%" stop-color="#d51007"></stop> <stop offset="100%" stop-color="#ff8177"></stop></linearGradient><linearGradient id="102" x1="0%" y1="0%" x2="100%" y2="0%"><stop offset="0%" stop-color="#a2b6df"></stop> <stop offset="100%" stop-color="#0c3483"></stop></linearGradient><linearGradient id="103" x1="0%" y1="0%" x2="100%" y2="0%"><stop offset="0%" stop-color="#7ac5d8"></stop> <stop offset="100%" stop-color="#eea2a2"></stop></linearGradient><linearGradient id="104" x1="0%" y1="0%" x2="100%" y2="0%"><stop offset="0%" stop-color="#00ecbc"></stop> <stop offset="100%" stop-color="#007adf"></stop></linearGradient><linearGradient id="105" x1="0%" y1="0%" x2="100%" y2="0%"><stop offset="0%" stop-color="#b88746"></stop> <stop offset="100%" stop-color="#fdf5a6"></stop></linearGradient></defs><g fill="#e50d00" class="icon-text-wrapper icon-svg-group iconsvg" transform="translate(47.204994201660156,89.65140533447266)"><g class="iconsvg-imagesvg" transform="translate(0,0)"><g><rect fill="#e50d00" fill-opacity="0" stroke-width="2" x="0" y="0" width="59.99999999999999" height="70.69719214318536" class="image-rect"></rect> <svg x="0" y="0" width="59.99999999999999" height="70.69719214318536" filtersec="colorsb663141347" class="image-svg-svg primary" style="overflow: visible;"><svg xmlns="http://www.w3.org/2000/svg" viewBox="-0.0000019073486328125 0 32.70000457763672 38.529998779296875"><g><path d="M16.35 3.93l6.53 3.77 6.53 3.77v4.13a23.83 23.83 0 0 1-.25 3.55l-12.8-7.39-1.76 1-1.48.86 15.22 8.79c-1.73 5-5.62 8.68-12 12.35-7.48-4.32-11.54-8.48-12.7-15l13 7.48A9 9 0 0 0 19.09 25L3.3 15.89v-4.43l6.52-3.77M16.35 0l8.17 4.72 8.18 4.72v4c0 14.84-6.48 20.21-16.35 25.09C6.48 33.38 0 28 0 13.44v-4l8.17-4.72z" fill="#e50d00" fill-rule="evenodd"></path></g></svg></svg> </g></g> <g transform="translate(67,18.758594512939453)"><g fill-rule="" class="tp-name iconsvg-namesvg"><g transform="scale(1)"><g><path d="M14.15-16.83L13.41-15.62Q13.19-15.22 12.73-15.22L12.73-15.22Q12.45-15.22 12.1-15.42 11.75-15.62 11.24-15.87 10.73-16.12 10.03-16.34 9.33-16.55 8.37-16.55L8.37-16.55Q7.54-16.55 6.87-16.34 6.21-16.12 5.73-15.75 5.26-15.38 5.01-14.9 4.77-14.41 4.77-13.83L4.77-13.83Q4.77-13.11 5.18-12.63 5.6-12.15 6.28-11.8 6.96-11.45 7.83-11.18 8.7-10.92 9.61-10.61 10.53-10.31 11.4-9.94 12.26-9.57 12.95-9.01 13.63-8.46 14.05-7.66 14.46-6.85 14.46-5.73L14.46-5.73Q14.46-4.43 14-3.33 13.54-2.23 12.63-1.43 11.73-0.63 10.42-0.17 9.11 0.3 7.39 0.3L7.39 0.3Q5.43 0.3 3.84-0.34 2.25-0.98 1.15-1.98L1.15-1.98 1.92-3.23Q2.07-3.47 2.27-3.6 2.47-3.73 2.81-3.73L2.81-3.73Q3.14-3.73 3.51-3.47 3.88-3.21 4.4-2.9 4.93-2.59 5.68-2.33 6.43-2.07 7.55-2.07L7.55-2.07Q8.51-2.07 9.23-2.32 9.95-2.57 10.44-2.99 10.92-3.42 11.15-3.97 11.38-4.52 11.38-5.15L11.38-5.15Q11.38-5.93 10.96-6.44 10.55-6.94 9.86-7.3 9.18-7.66 8.3-7.93 7.42-8.2 6.51-8.5 5.6-8.79 4.72-9.17 3.84-9.55 3.16-10.12 2.47-10.69 2.06-11.53 1.64-12.37 1.64-13.57L1.64-13.57Q1.64-14.65 2.09-15.63 2.53-16.62 3.38-17.37 4.23-18.12 5.47-18.56 6.7-19 8.29-19L8.29-19Q10.14-19 11.61-18.42 13.08-17.84 14.15-16.83L14.15-16.83ZM18.28-18.71L21.57-18.71 21.57-6.78Q21.57-4.65 22.55-3.49 23.53-2.33 25.51-2.33L25.51-2.33Q26.95-2.33 28.22-3.01 29.5-3.69 30.57-4.91L30.57-4.91 30.57-18.71 33.85-18.71 33.85 0 31.9 0Q31.19 0 31.01-0.68L31.01-0.68 30.75-2.7Q29.53-1.35 28.02-0.53 26.5 0.3 24.55 0.3L24.55 0.3Q23.01 0.3 21.84-0.21 20.67-0.72 19.87-1.64 19.08-2.57 18.68-3.88 18.28-5.19 18.28-6.78L18.28-6.78 18.28-18.71ZM42.55 6.33L39.27 6.33 39.27-18.71 41.22-18.71Q41.92-18.71 42.11-18.03L42.11-18.03 42.39-15.81Q43.59-17.27 45.13-18.16 46.67-19.04 48.68-19.04L48.68-19.04Q50.29-19.04 51.6-18.42 52.91-17.8 53.84-16.59 54.76-15.38 55.26-13.59 55.76-11.8 55.76-9.47L55.76-9.47Q55.76-7.41 55.2-5.62 54.65-3.84 53.62-2.54 52.58-1.24 51.08-0.49 49.57 0.26 47.69 0.26L47.69 0.26Q45.95 0.26 44.72-0.31 43.49-0.89 42.55-1.94L42.55-1.94 42.55 6.33ZM47.59-16.38L47.59-16.38Q45.99-16.38 44.78-15.64 43.57-14.9 42.55-13.56L42.55-13.56 42.55-4.51Q43.46-3.29 44.54-2.79 45.62-2.29 46.95-2.29L46.95-2.29Q49.55-2.29 50.96-4.16 52.36-6.02 52.36-9.47L52.36-9.47Q52.36-11.3 52.04-12.61 51.71-13.93 51.1-14.77 50.49-15.61 49.61-15.99 48.72-16.38 47.59-16.38ZM67.06-19L67.06-19Q68.74-19 70.16-18.44 71.59-17.88 72.62-16.82 73.65-15.75 74.24-14.19 74.82-12.63 74.82-10.64L74.82-10.64Q74.82-9.86 74.65-9.6 74.49-9.35 74.02-9.35L74.02-9.35 61.58-9.35Q61.61-7.57 62.06-6.26 62.5-4.95 63.28-4.07 64.05-3.2 65.12-2.76 66.19-2.33 67.52-2.33L67.52-2.33Q68.76-2.33 69.66-2.61 70.55-2.9 71.2-3.23 71.84-3.56 72.28-3.85 72.71-4.14 73.03-4.14L73.03-4.14Q73.43-4.14 73.65-3.82L73.65-3.82 74.58-2.62Q73.97-1.88 73.12-1.34 72.27-0.79 71.3-0.44 70.33-0.09 69.3 0.08 68.26 0.26 67.25 0.26L67.25 0.26Q65.31 0.26 63.67-0.4 62.04-1.05 60.85-2.32 59.66-3.58 58.99-5.45 58.33-7.31 58.33-9.73L58.33-9.73Q58.33-11.69 58.93-13.39 59.53-15.09 60.65-16.34 61.78-17.58 63.4-18.29 65.03-19 67.06-19ZM67.14-16.59L67.14-16.59Q64.75-16.59 63.39-15.21 62.02-13.83 61.69-11.4L61.69-11.4 71.86-11.4Q71.86-12.54 71.55-13.49 71.24-14.44 70.63-15.14 70.02-15.83 69.14-16.21 68.26-16.59 67.14-16.59ZM82.3 0L79.01 0 79.01-18.71 80.89-18.71Q81.43-18.71 81.63-18.51 81.84-18.3 81.91-17.8L81.91-17.8 82.13-14.89Q83.09-16.84 84.51-17.94 85.92-19.04 87.82-19.04L87.82-19.04Q88.6-19.04 89.22-18.87 89.85-18.69 90.39-18.38L90.39-18.38 89.96-15.92Q89.83-15.46 89.39-15.46L89.39-15.46Q89.13-15.46 88.6-15.63 88.06-15.81 87.1-15.81L87.1-15.81Q85.38-15.81 84.23-14.81 83.07-13.81 82.3-11.91L82.3-11.91 82.3 0ZM97.18 6.33L93.9 6.33 93.9-18.71 95.85-18.71Q96.56-18.71 96.74-18.03L96.74-18.03 97.02-15.81Q98.22-17.27 99.76-18.16 101.3-19.04 103.32-19.04L103.32-19.04Q104.92-19.04 106.23-18.42 107.55-17.8 108.47-16.59 109.39-15.38 109.89-13.59 110.39-11.8 110.39-9.47L110.39-9.47Q110.39-7.41 109.84-5.62 109.28-3.84 108.25-2.54 107.21-1.24 105.71-0.49 104.2 0.26 102.32 0.26L102.32 0.26Q100.58 0.26 99.35-0.31 98.13-0.89 97.18-1.94L97.18-1.94 97.18 6.33ZM102.23-16.38L102.23-16.38Q100.62-16.38 99.41-15.64 98.2-14.9 97.18-13.56L97.18-13.56 97.18-4.51Q98.09-3.29 99.17-2.79 100.25-2.29 101.58-2.29L101.58-2.29Q104.18-2.29 105.59-4.16 106.99-6.02 106.99-9.47L106.99-9.47Q106.99-11.3 106.67-12.61 106.35-13.93 105.74-14.77 105.13-15.61 104.24-15.99 103.35-16.38 102.23-16.38ZM117.57 0L114.29 0 114.29-18.71 116.17-18.71Q116.71-18.71 116.91-18.51 117.11-18.3 117.19-17.8L117.19-17.8 117.41-14.89Q118.37-16.84 119.78-17.94 121.19-19.04 123.1-19.04L123.1-19.04Q123.87-19.04 124.5-18.87 125.13-18.69 125.66-18.38L125.66-18.38 125.24-15.92Q125.11-15.46 124.67-15.46L124.67-15.46Q124.41-15.46 123.87-15.63 123.34-15.81 122.38-15.81L122.38-15.81Q120.66-15.81 119.5-14.81 118.35-13.81 117.57-11.91L117.57-11.91 117.57 0ZM136.75-19L136.75-19Q138.8-19 140.45-18.32 142.1-17.64 143.26-16.38 144.41-15.13 145.03-13.34 145.65-11.56 145.65-9.36L145.65-9.36Q145.65-7.15 145.03-5.37 144.41-3.6 143.26-2.35 142.1-1.09 140.45-0.42 138.8 0.26 136.75 0.26L136.75 0.26Q134.7 0.26 133.04-0.42 131.39-1.09 130.23-2.35 129.06-3.6 128.43-5.37 127.81-7.15 127.81-9.36L127.81-9.36Q127.81-11.56 128.43-13.34 129.06-15.13 130.23-16.38 131.39-17.64 133.04-18.32 134.7-19 136.75-19ZM136.75-2.31L136.75-2.31Q139.52-2.31 140.88-4.16 142.25-6.02 142.25-9.35L142.25-9.35Q142.25-12.69 140.88-14.55 139.52-16.42 136.75-16.42L136.75-16.42Q135.34-16.42 134.31-15.94 133.27-15.46 132.58-14.55 131.89-13.65 131.55-12.33 131.2-11.01 131.2-9.35L131.2-9.35Q131.2-7.68 131.55-6.37 131.89-5.06 132.58-4.16 133.27-3.27 134.31-2.79 135.34-2.31 136.75-2.31ZM157.28-19L157.28-19Q159.33-19 160.99-18.32 162.64-17.64 163.79-16.38 164.95-15.13 165.57-13.34 166.19-11.56 166.19-9.36L166.19-9.36Q166.19-7.15 165.57-5.37 164.95-3.6 163.79-2.35 162.64-1.09 160.99-0.42 159.33 0.26 157.28 0.26L157.28 0.26Q155.23 0.26 153.58-0.42 151.93-1.09 150.76-2.35 149.6-3.6 148.97-5.37 148.34-7.15 148.34-9.36L148.34-9.36Q148.34-11.56 148.97-13.34 149.6-15.13 150.76-16.38 151.93-17.64 153.58-18.32 155.23-19 157.28-19ZM157.28-2.31L157.28-2.31Q160.05-2.31 161.42-4.16 162.79-6.02 162.79-9.35L162.79-9.35Q162.79-12.69 161.42-14.55 160.05-16.42 157.28-16.42L157.28-16.42Q155.88-16.42 154.85-15.94 153.81-15.46 153.12-14.55 152.43-13.65 152.08-12.33 151.74-11.01 151.74-9.35L151.74-9.35Q151.74-7.68 152.08-6.37 152.43-5.06 153.12-4.16 153.81-3.27 154.85-2.79 155.88-2.31 157.28-2.31ZM174.29 0L170.99 0 170.99-15.9 168.92-16.14Q168.53-16.23 168.28-16.43 168.03-16.62 168.03-16.99L168.03-16.99 168.03-18.34 170.99-18.34 170.99-20.15Q170.99-21.76 171.44-23 171.89-24.25 172.73-25.11 173.57-25.97 174.75-26.41 175.94-26.85 177.41-26.85L177.41-26.85Q178.67-26.85 179.74-26.48L179.74-26.48 179.67-24.84Q179.65-24.47 179.35-24.4 179.06-24.32 178.52-24.32L178.52-24.32 177.95-24.32Q177.1-24.32 176.41-24.1 175.72-23.88 175.22-23.38 174.72-22.88 174.45-22.07 174.18-21.26 174.18-20.06L174.18-20.06 174.18-18.34 179.59-18.34 179.59-15.96 174.29-15.96 174.29 0Z" transform="translate(-1.149999976158142, 26.850000381469727)"></path></g> </g></g> </g></g><defs v-gra="od"></defs></g></svg>